<svg width="100" height="100" viewBox="0 0 100 100" fill="none" xmlns="http://www.w3.org/2000/svg">
<path d="M49.5 23.2332C38.8302 23.2332 30 32.0633 30 42.7332C30 53.403 38.8302 62.2332 49.5 62.2332C60.1698 62.2332 69 53.403 69 42.7332C69 31.6954 60.1698 23.2332 49.5 23.2332ZM49.5 58.186C40.6698 58.186 33.6792 51.1954 33.6792 42.3652C33.6792 33.535 40.6698 26.5445 49.5 26.5445C58.3302 26.5445 65.3208 33.535 65.3208 42.3652C65.3208 51.1954 58.3302 58.186 49.5 58.186Z" fill="#828A9B"/>
<path d="M14.011 80.8103L13.9938 80.7844L13.9735 80.7608C6.94055 72.5852 2.5 61.81 2.5 49.9209C2.5 23.9106 23.5969 2.73315 49.5 2.73315C75.4031 2.73315 96.5 23.9106 96.5 49.9209C96.5 61.8159 92.4299 72.5801 85.0429 80.7425L83.7422 82.0483L82.437 83.3586C73.921 91.5347 62.4498 96.7332 49.5 96.7332C36.539 96.7332 25.073 91.9023 16.5668 83.3625L16.5319 83.3274L16.4907 83.2998C15.4236 82.5856 14.7226 81.8819 14.011 80.8103ZM18.5032 81.0846L18.0883 81.4443L18.4852 81.8238C26.4258 89.4162 37.3937 94.3537 49.5 94.3537C61.6063 94.3537 72.5742 89.4162 80.5148 81.8238L80.9117 81.4443L80.4968 81.0846C72.1851 73.8779 61.2244 69.3221 49.5 69.3221C37.7756 69.3221 26.8149 73.8779 18.5032 81.0846ZM82.0834 79.2096L82.4644 79.5443L82.7936 79.1586C89.5973 71.1896 93.7598 60.938 93.7598 49.9209C93.7598 25.2395 74.089 5.4881 49.5 5.4881C24.911 5.4881 5.24016 25.2395 5.24016 49.9209C5.24016 61.3092 9.40001 71.5663 16.2143 79.1677L16.5518 79.5442L16.9245 79.2025C25.4366 71.3999 37.2852 66.5671 49.5 66.5671C61.7092 66.5671 73.1889 71.3961 82.0834 79.2096Z" fill="#828A9B" stroke="#828A9B"/>
</svg>
