<svg width="40" height="40" viewBox="0 0 40 40" fill="none" xmlns="http://www.w3.org/2000/svg">
<circle cx="20" cy="20" r="19.5" stroke="#4F4F4F"/>
<path fill-rule="evenodd" clip-rule="evenodd" d="M17.1875 12.125C17.4982 12.125 17.75 12.3768 17.75 12.6875V13.25H19.4375V12.6875C19.4375 12.3768 19.6893 12.125 20 12.125C20.3107 12.125 20.5625 12.3768 20.5625 12.6875V13.25H22.25V12.6875C22.25 12.3768 22.5018 12.125 22.8125 12.125C23.1232 12.125 23.375 12.3768 23.375 12.6875V13.25H24.5C25.7426 13.25 26.75 14.2574 26.75 15.5V16.625H27.3125C27.6232 16.625 27.875 16.8768 27.875 17.1875C27.875 17.4982 27.6232 17.75 27.3125 17.75H26.75V19.4375H27.3125C27.6232 19.4375 27.875 19.6893 27.875 20C27.875 20.3107 27.6232 20.5625 27.3125 20.5625H26.75V22.25H27.3125C27.6232 22.25 27.875 22.5018 27.875 22.8125C27.875 23.1232 27.6232 23.375 27.3125 23.375H26.75V24.5C26.75 25.7426 25.7426 26.75 24.5 26.75H23.375V27.3125C23.375 27.6232 23.1232 27.875 22.8125 27.875C22.5018 27.875 22.25 27.6232 22.25 27.3125V26.75H20.5625V27.3125C20.5625 27.6232 20.3107 27.875 20 27.875C19.6893 27.875 19.4375 27.6232 19.4375 27.3125V26.75H17.75V27.3125C17.75 27.6232 17.4982 27.875 17.1875 27.875C16.8768 27.875 16.625 27.6232 16.625 27.3125V26.75H15.5C14.2574 26.75 13.25 25.7426 13.25 24.5V23.375H12.6875C12.3768 23.375 12.125 23.1232 12.125 22.8125C12.125 22.5018 12.3768 22.25 12.6875 22.25H13.25V20.5625H12.6875C12.3768 20.5625 12.125 20.3107 12.125 20C12.125 19.6893 12.3768 19.4375 12.6875 19.4375H13.25V17.75H12.6875C12.3768 17.75 12.125 17.4982 12.125 17.1875C12.125 16.8768 12.3768 16.625 12.6875 16.625H13.25V15.5C13.25 14.2574 14.2574 13.25 15.5 13.25H16.625V12.6875C16.625 12.3768 16.8768 12.125 17.1875 12.125ZM15.5 14.375C14.8787 14.375 14.375 14.8787 14.375 15.5V24.5C14.375 25.1213 14.8787 25.625 15.5 25.625H24.5C25.1213 25.625 25.625 25.1213 25.625 24.5V15.5C25.625 14.8787 25.1213 14.375 24.5 14.375H15.5ZM15.5 16.625C15.5 16.0037 16.0037 15.5 16.625 15.5H23.375C23.9963 15.5 24.5 16.0037 24.5 16.625V23.375C24.5 23.9963 23.9963 24.5 23.375 24.5H16.625C16.0037 24.5 15.5 23.9963 15.5 23.375V16.625ZM23.375 16.625H16.625V23.375H23.375V16.625Z" fill="#4F4F4F"/>
</svg>
