<svg width="332" height="107" viewBox="0 0 332 107" fill="none" xmlns="http://www.w3.org/2000/svg">
<rect width="332" height="107" fill="#ECEDF0"/>
<path d="M112 53.1611L184.173 11.9998L208.622 53.8302L136.449 94.9915L112 53.1611Z" fill="#99A0AF"/>
<path d="M121.916 53.3259L179.36 20.5648L198.706 53.6654L141.262 86.4265L121.916 53.3259Z" fill="#ECEDF0"/>
<path d="M136.776 46.6782H220V94.9996H136.776V46.6782Z" fill="#99A0AF"/>
<path d="M145.269 51.7205H211.508V89.9573H145.269V51.7205Z" fill="#ECEDF0"/>
<path fill-rule="evenodd" clip-rule="evenodd" d="M167.707 63.5768C164.752 65.8721 162.597 69.0458 161.553 72.643L163.172 73.1148C164.117 69.8601 166.067 66.9887 168.741 64.912C171.415 62.8352 174.677 61.6598 178.059 61.5542C181.442 61.4486 184.77 62.4182 187.569 64.324C190.367 66.2298 192.491 68.9741 193.636 72.1634L195.223 71.5915C193.957 68.0665 191.61 65.0334 188.517 62.9269C185.424 60.8205 181.745 59.7488 178.007 59.8656C174.269 59.9823 170.663 61.2815 167.707 63.5768Z" fill="#99A0AF"/>
<path fill-rule="evenodd" clip-rule="evenodd" d="M169.774 66.2472C167.382 68.1054 165.637 70.6745 164.792 73.5866L166.412 74.0583C167.158 71.4888 168.697 69.2219 170.808 67.5824C172.919 65.9428 175.494 65.0149 178.164 64.9315C180.835 64.8481 183.463 65.6136 185.672 67.1182C187.881 68.6228 189.558 70.7893 190.462 73.3072L192.049 72.7354C191.024 69.8818 189.124 67.4264 186.62 65.7211C184.116 64.0159 181.138 63.1484 178.112 63.2429C175.086 63.3374 172.167 64.3891 169.774 66.2472Z" fill="#99A0AF"/>
<path fill-rule="evenodd" clip-rule="evenodd" d="M171.841 68.9176C170.011 70.3385 168.678 72.3032 168.031 74.53L169.651 75.0017C170.198 73.1175 171.326 71.4551 172.875 70.2527C174.423 69.0504 176.311 68.3699 178.27 68.3088C180.228 68.2476 182.155 68.809 183.775 69.9123C185.395 71.0157 186.625 72.6045 187.288 74.4509L188.875 73.8791C188.091 71.6969 186.638 69.8193 184.723 68.5153C182.809 67.2113 180.531 66.5479 178.217 66.6202C175.903 66.6924 173.671 67.4967 171.841 68.9176Z" fill="#99A0AF"/>
<path fill-rule="evenodd" clip-rule="evenodd" d="M173.908 71.588C172.641 72.5717 171.718 73.9319 171.27 75.4735L172.89 75.9453C173.238 74.7462 173.956 73.6883 174.942 72.9232C175.927 72.1581 177.129 71.725 178.375 71.6861C179.621 71.6472 180.847 72.0044 181.878 72.7066C182.909 73.4087 183.692 74.4198 184.114 75.5948L185.701 75.0229C185.158 73.5121 184.152 72.2122 182.827 71.3095C181.501 70.4067 179.924 69.9474 178.322 69.9975C176.72 70.0475 175.175 70.6043 173.908 71.588Z" fill="#99A0AF"/>
<path d="M174.51 76.417C175.16 74.1771 177.5 72.8894 179.736 73.5407C181.972 74.1921 183.258 76.5359 182.608 78.7758C181.957 81.0157 179.617 82.3034 177.381 81.6521C175.145 81.0007 173.859 78.6569 174.51 76.417Z" fill="#99A0AF"/>
</svg>
