<svg width="17" height="16" viewBox="0 0 17 16" fill="none" xmlns="http://www.w3.org/2000/svg">
<path d="M10.3389 16H7.28719C7.28362 16 7.28005 16 7.27648 16C6.81961 15.993 6.4377 15.6835 6.34489 15.2487C6.34133 15.2383 6.34133 15.2243 6.33776 15.2139L6.09861 13.5513H6.09504C5.80236 13.4122 5.51682 13.2522 5.24912 13.0678L3.64651 13.6974C3.64294 13.6974 3.63937 13.7009 3.6358 13.7009C3.20034 13.8609 2.71135 13.6974 2.47221 13.3043C2.47221 13.3009 2.46864 13.3009 2.46864 13.2974L0.940978 10.7235C0.705404 10.3304 0.798206 9.82957 1.1587 9.53739C1.16227 9.53391 1.16584 9.53043 1.16941 9.52696L2.53288 8.48348L2.52932 8.48C2.51504 8.30609 2.5079 8.14956 2.5079 7.99652C2.5079 7.84 2.51504 7.68348 2.52932 7.51652L1.17298 6.48C1.16584 6.47652 1.16227 6.47304 1.1587 6.46609C0.805344 6.17391 0.716112 5.67652 0.948116 5.28696L2.47578 2.71304C2.47578 2.70957 2.47935 2.70957 2.47935 2.70609C2.71849 2.31652 3.20748 2.14957 3.64294 2.30957C3.64651 2.30957 3.65007 2.31304 3.65364 2.31304L5.25626 2.94261C5.52752 2.76174 5.8095 2.60174 6.10218 2.46261L6.34133 0.796522C6.34133 0.789565 6.34489 0.782609 6.34489 0.77913C6.41985 0.337391 6.81247 0.0104348 7.27291 0C7.27648 0 7.28005 0 7.28362 0H10.3354C10.3389 0 10.3425 0 10.3461 0C10.8029 0.00695652 11.1849 0.316522 11.2777 0.751304C11.2812 0.761739 11.2812 0.775652 11.2848 0.786087L11.5239 2.4487H11.5275C11.8202 2.58783 12.1057 2.74783 12.3734 2.93217L13.9761 2.30261C13.9796 2.30261 13.9832 2.29913 13.9868 2.29913C14.4222 2.13565 14.9112 2.30261 15.1504 2.69565C15.1504 2.69913 15.1539 2.69913 15.1539 2.70261L16.6816 5.27652C16.9172 5.66956 16.8244 6.17043 16.4639 6.46261C16.4603 6.46609 16.4567 6.46956 16.4531 6.47304L15.0897 7.51652C15.0897 7.52 15.0897 7.52348 15.0897 7.52348C15.104 7.70087 15.1111 7.85739 15.1111 8V8.00348C15.1111 8.16 15.104 8.32 15.0897 8.47652L16.4531 9.51652C16.4567 9.52 16.4603 9.52348 16.4639 9.52696C16.8244 9.81913 16.9172 10.3165 16.6816 10.713L15.1539 13.287C15.1539 13.2904 15.1504 13.2904 15.1504 13.2939C14.9112 13.6835 14.4222 13.8504 13.9868 13.6904C13.9832 13.6904 13.9796 13.687 13.9761 13.687L12.3734 13.0574C12.1022 13.2383 11.8202 13.3983 11.5275 13.5374L11.2884 15.2035C11.2884 15.2104 11.2848 15.2174 11.2848 15.2209C11.2063 15.6626 10.8137 15.9896 10.3532 16C10.3461 16 10.3425 16 10.3389 16ZM7.44424 14.887H10.1783L10.396 13.3809C10.4496 13.0157 10.6852 12.6991 11.0278 12.5357C11.2705 12.4209 11.5025 12.2887 11.7238 12.1426C12.0379 11.9304 12.4413 11.8852 12.8018 12.0243L14.2509 12.5913L15.6144 10.2922L14.1295 9.16174C13.9689 9.04 13.8868 8.84174 13.9154 8.64696C13.9475 8.43478 13.9618 8.21565 13.9653 8C13.9653 7.88522 13.9582 7.76 13.9475 7.61391C13.9118 7.23826 14.076 6.87304 14.3794 6.64L15.6108 5.69739L14.2473 3.39826L12.7982 3.96522C12.4413 4.10435 12.0379 4.06261 11.7203 3.84696C11.5025 3.69739 11.2705 3.56522 11.0314 3.45391C10.6887 3.29391 10.4496 2.97739 10.3925 2.6087L10.1783 1.11304H7.44424L7.22651 2.61913C7.17297 2.98435 6.9374 3.30087 6.59475 3.46435C6.35203 3.57913 6.12003 3.7113 5.89873 3.85739C5.58463 4.06956 5.1813 4.11478 4.8208 3.97565L3.37881 3.4087L2.01534 5.70783L3.23961 6.64696C3.543 6.88 3.70361 7.24174 3.67149 7.61739C3.65721 7.75304 3.65364 7.87826 3.65364 8C3.65364 8.11826 3.66078 8.24348 3.67149 8.38609C3.70718 8.76174 3.54657 9.12696 3.24317 9.36L2.01177 10.3026L3.37524 12.6017L4.8208 12.0348C5.17773 11.8957 5.58106 11.9374 5.89873 12.153C6.11646 12.3026 6.34846 12.4348 6.58761 12.5461C6.93026 12.7061 7.1694 13.0226 7.22651 13.3913L7.44424 14.887ZM8.81485 10.7826C8.72205 10.7826 8.62568 10.7791 8.53287 10.7687C7.77261 10.6957 7.09088 10.3374 6.60545 9.76348C6.12003 9.18957 5.89516 8.46609 5.97012 7.72522C6.1236 6.19826 7.52633 5.07826 9.09325 5.22783C10.4424 5.36 11.5168 6.41043 11.6524 7.72174C11.6703 7.90261 11.6703 8.08696 11.6524 8.2713C11.5061 9.70783 10.264 10.7826 8.81485 10.7826ZM8.80771 6.33043C8.41152 6.33043 8.03317 6.46261 7.72264 6.70956C7.36928 6.9913 7.14799 7.3913 7.10515 7.83652C7.05875 8.28174 7.19439 8.71304 7.48707 9.06087C7.77618 9.40522 8.18665 9.62087 8.64352 9.66261C9.58225 9.75304 10.4246 9.08174 10.5174 8.16348C10.5281 8.05565 10.5281 7.94435 10.5174 7.83652C10.4353 7.04696 9.78927 6.41739 8.97904 6.33739C8.92193 6.33391 8.86482 6.33043 8.80771 6.33043Z" fill="#4F4F4F"/>
</svg>
