<svg width="32" height="32" viewBox="0 0 32 32" fill="none" xmlns="http://www.w3.org/2000/svg">
<path d="M28.244 7.46997H2.672V24.53H29.328V7.46997H28.244ZM27.177 8.53597L16.879 18.834C16.409 19.304 15.59 19.304 15.12 18.834L4.82 8.53597H27.176H27.177ZM3.738 8.96097L10.661 15.883L3.738 22.806V8.95997V8.96097ZM4.589 23.464L11.416 16.638L14.367 19.588C14.803 20.024 15.383 20.265 16 20.265C16.617 20.265 17.197 20.024 17.633 19.588L20.584 16.637L27.41 23.463H4.588L4.589 23.464ZM28.262 22.807L21.339 15.883L28.262 8.95897V22.807Z" fill="black"/>
</svg>
