<svg width="25" height="24" viewBox="0 0 25 24" fill="none" xmlns="http://www.w3.org/2000/svg">
<path d="M9.5 19H19.5V17H9.5V19ZM9.5 13H15.5V11H9.5V13ZM9.5 5V7H21.5V5H9.5ZM5.5 4.5C5.30295 4.50007 5.10785 4.53894 4.92582 4.61441C4.7438 4.68988 4.57842 4.80046 4.43913 4.93984C4.29984 5.07922 4.18937 5.24467 4.11403 5.42675C4.03868 5.60882 3.99993 5.80395 4 6.001C4.00007 6.19805 4.03894 6.39315 4.11441 6.57518C4.18988 6.7572 4.30046 6.92258 4.43984 7.06187C4.57922 7.20116 4.74467 7.31163 4.92675 7.38697C5.10882 7.46232 5.30395 7.50107 5.501 7.501C5.89896 7.50087 6.28056 7.34265 6.56187 7.06116C6.84317 6.77967 7.00113 6.39796 7.001 6C7.00087 5.60204 6.84265 5.22044 6.56116 4.93913C6.27967 4.65783 5.89796 4.49987 5.5 4.5ZM5.5 10.5C5.30295 10.5001 5.10785 10.5389 4.92582 10.6144C4.7438 10.6899 4.57842 10.8005 4.43913 10.9398C4.29984 11.0792 4.18937 11.2447 4.11403 11.4267C4.03868 11.6088 3.99993 11.804 4 12.001C4.00007 12.198 4.03894 12.3932 4.11441 12.5752C4.18988 12.7572 4.30046 12.9226 4.43984 13.0619C4.57922 13.2012 4.74467 13.3116 4.92675 13.387C5.10882 13.4623 5.30395 13.5011 5.501 13.501C5.89896 13.5009 6.28056 13.3427 6.56187 13.0612C6.84317 12.7797 7.00113 12.398 7.001 12C7.00087 11.602 6.84265 11.2204 6.56116 10.9391C6.27967 10.6578 5.89796 10.4999 5.5 10.5ZM5.5 16.5C5.30295 16.5001 5.10785 16.5389 4.92582 16.6144C4.7438 16.6899 4.57842 16.8005 4.43913 16.9398C4.29984 17.0792 4.18937 17.2447 4.11403 17.4267C4.03868 17.6088 3.99993 17.804 4 18.001C4.00007 18.198 4.03894 18.3932 4.11441 18.5752C4.18988 18.7572 4.30046 18.9226 4.43984 19.0619C4.57922 19.2012 4.74467 19.3116 4.92675 19.387C5.10882 19.4623 5.30395 19.5011 5.501 19.501C5.89896 19.5009 6.28056 19.3427 6.56187 19.0612C6.84317 18.7797 7.00113 18.398 7.001 18C7.00087 17.602 6.84265 17.2204 6.56116 16.9391C6.27967 16.6578 5.89796 16.4999 5.5 16.5Z" fill="black"/>
</svg>
