<svg width="15" height="16" viewBox="0 0 15 16" fill="none" xmlns="http://www.w3.org/2000/svg">
<path fill-rule="evenodd" clip-rule="evenodd" d="M6.23818 1.14286C6.20084 1.14275 6.16386 1.15002 6.12935 1.16426C6.09484 1.17849 6.06348 1.19941 6.03708 1.22581C6.01069 1.25221 5.98977 1.28356 5.97553 1.31807C5.9613 1.35258 5.95402 1.38957 5.95413 1.4269L5.95414 1.42857V2.28572H9.38271V1.42857L9.38271 1.4269C9.38282 1.38957 9.37555 1.35258 9.36131 1.31807C9.34707 1.28356 9.32616 1.2522 9.29976 1.22581C9.27336 1.19941 9.24201 1.17849 9.20749 1.16426C9.17298 1.15002 9.136 1.14275 9.09867 1.14286L9.09699 1.14286H6.23985L6.23818 1.14286ZM3.13382 3.42857L3.81017 14.2501C3.8103 14.2522 3.81042 14.2543 3.81053 14.2564C3.83029 14.641 4.08561 14.8571 4.38271 14.8571H10.9541C11.2483 14.8571 11.5025 14.6458 11.5266 14.2509L12.203 3.42857H3.13382ZM12.806 2.28572H10.5256V1.42942C10.526 1.24173 10.4894 1.05579 10.4178 0.882268C10.3461 0.708496 10.2408 0.550608 10.1079 0.417687C9.97496 0.284765 9.81707 0.179436 9.6433 0.107755C9.46982 0.036194 9.28392 -0.000421876 9.09626 3.66699e-06H6.24058C6.05292 -0.000421876 5.86703 0.0361939 5.69354 0.107755C5.51977 0.179437 5.36188 0.284766 5.22896 0.417687C5.09604 0.550607 4.99071 0.708494 4.91903 0.882268C4.84747 1.05575 4.81085 1.24165 4.81128 1.42931V2.28572H2.53084C2.52769 2.28569 2.52454 2.28569 2.52138 2.28572H1.38271C1.06712 2.28572 0.811279 2.54155 0.811279 2.85715C0.811279 3.17274 1.06712 3.42857 1.38271 3.42857H1.98874L2.66935 14.3185C2.719 15.253 3.42383 16 4.38271 16H10.9541C11.9221 16 12.6107 15.2464 12.6673 14.3207C12.6674 14.3206 12.6674 14.3206 12.6674 14.3206L13.3481 3.42857H13.9541C14.2697 3.42857 14.5256 3.17274 14.5256 2.85715C14.5256 2.54155 14.2697 2.28572 13.9541 2.28572H12.8155C12.8123 2.28569 12.8091 2.28569 12.806 2.28572ZM5.0766 4.5718C5.39199 4.56053 5.65679 4.80707 5.66806 5.12246L5.95377 13.1225C5.96504 13.4379 5.71849 13.7027 5.4031 13.7139C5.08771 13.7252 4.82291 13.4786 4.81164 13.1633L4.52593 5.16326C4.51466 4.84787 4.76121 4.58306 5.0766 4.5718ZM10.2602 4.5718C10.5756 4.58306 10.8222 4.84787 10.8109 5.16326L10.5252 13.1633C10.5139 13.4786 10.2491 13.7252 9.93374 13.7139C9.61835 13.7027 9.37181 13.4379 9.38307 13.1225L9.66879 5.12246C9.68005 4.80707 9.94485 4.56053 10.2602 4.5718ZM7.66842 4.57143C7.98401 4.57143 8.23985 4.82727 8.23985 5.14286V13.1429C8.23985 13.4584 7.98401 13.7143 7.66842 13.7143C7.35283 13.7143 7.09699 13.4584 7.09699 13.1429V5.14286C7.09699 4.82727 7.35283 4.57143 7.66842 4.57143Z" fill="#4F4F4F"/>
</svg>
