<svg width="20" height="20" viewBox="0 0 20 20" fill="none" xmlns="http://www.w3.org/2000/svg">
<path d="M8.75 12.7082C8.58921 12.6959 8.43964 12.6211 8.33333 12.4998L5.83333 9.99982C5.77763 9.88319 5.75945 9.75217 5.78131 9.62478C5.80317 9.4974 5.86398 9.37992 5.95537 9.28853C6.04676 9.19714 6.16423 9.13633 6.29162 9.11447C6.41901 9.09262 6.55003 9.11079 6.66666 9.16649L8.725 11.2248L15.8333 4.16649C15.95 4.11079 16.081 4.09261 16.2084 4.11447C16.3358 4.13633 16.4532 4.19714 16.5446 4.28853C16.636 4.37992 16.6968 4.4974 16.7187 4.62478C16.7405 4.75217 16.7224 4.88319 16.6667 4.99982L9.16666 12.4998C9.06035 12.6211 8.91078 12.6959 8.75 12.7082Z" fill="#005EFF"/>
<path d="M10 17.5002C8.65955 17.498 7.34418 17.1367 6.19077 16.4537C5.03735 15.7708 4.08806 14.7912 3.44167 13.6169C2.95032 12.7418 2.64665 11.7741 2.55 10.7752C2.39748 9.31026 2.67967 7.83285 3.36137 6.52725C4.04307 5.22165 5.09409 4.14567 6.38333 3.43353C7.25835 2.94218 8.22613 2.63851 9.225 2.54186C10.2201 2.43482 11.2266 2.53121 12.1833 2.82519C12.2687 2.84225 12.3496 2.87696 12.4208 2.9271C12.492 2.97724 12.5519 3.0417 12.5967 3.11635C12.6415 3.19099 12.6703 3.27418 12.6811 3.36058C12.6918 3.44698 12.6845 3.53468 12.6594 3.61806C12.6343 3.70144 12.5921 3.77866 12.5355 3.84477C12.4788 3.91089 12.409 3.96444 12.3304 4.00198C12.2518 4.03953 12.1663 4.06025 12.0793 4.06281C11.9922 4.06537 11.9056 4.04972 11.825 4.01686C11.0155 3.77346 10.1656 3.69413 9.325 3.78353C8.49416 3.8686 7.68913 4.12088 6.95833 4.52519C6.25428 4.91361 5.63178 5.43424 5.125 6.05853C4.60322 6.69449 4.21358 7.42818 3.97891 8.21662C3.74423 9.00507 3.66924 9.83241 3.75833 10.6502C3.84341 11.481 4.09569 12.2861 4.5 13.0169C4.88842 13.7209 5.40905 14.3434 6.03333 14.8502C6.6693 15.372 7.40299 15.7616 8.19143 15.9963C8.97987 16.231 9.80721 16.3059 10.625 16.2169C11.4558 16.1318 12.2609 15.8795 12.9917 15.4752C13.6957 15.0868 14.3182 14.5661 14.825 13.9419C15.3468 13.3059 15.7364 12.5722 15.9711 11.7838C16.2058 10.9953 16.2808 10.168 16.1917 9.35019C16.1751 9.1767 16.2281 9.00372 16.3391 8.86932C16.45 8.73492 16.6098 8.6501 16.7833 8.63353C16.9568 8.61695 17.1298 8.66998 17.2642 8.78093C17.3986 8.89189 17.4834 9.0517 17.5 9.22519C17.6517 10.691 17.3683 12.169 16.6851 13.4747C16.0019 14.7804 14.9491 15.8559 13.6583 16.5669C12.774 17.0783 11.7913 17.3964 10.775 17.5002H10Z" fill="#005EFF"/>
</svg>
