<svg width="25" height="24" viewBox="0 0 25 24" fill="none" xmlns="http://www.w3.org/2000/svg">
  <path d="M11.54 17.28C8.08399 17.28 5.29999 14.496 5.29999 11.04C5.29999 7.58399 8.08399 4.79999 11.54 4.79999C14.996 4.79999 17.78 7.58399 17.78 11.04C17.78 14.496 14.996 17.28 11.54 17.28ZM11.54 5.75999C8.61199 5.75999 6.25999 8.11199 6.25999 11.04C6.25999 13.968 8.61199 16.32 11.54 16.32C14.468 16.32 16.82 13.968 16.82 11.04C16.82 8.11199 14.468 5.75999 11.54 5.75999Z" fill="#99A0AF"/>
  <path d="M16.1874 15.0082L20.4978 19.3186L19.8191 19.9973L15.5087 15.6869L16.1874 15.0082Z" fill="#99A0AF"/>
</svg>