<svg width="21" height="20" viewBox="0 0 21 20" fill="none" xmlns="http://www.w3.org/2000/svg">
<path fill-rule="evenodd" clip-rule="evenodd" d="M15.6638 2.58678C15.9265 2.26656 16.3991 2.21995 16.7193 2.48268C17.831 3.39479 18.7265 4.54214 19.3413 5.84206C19.9562 7.14198 20.275 8.5621 20.2748 10.0001C20.2748 15.3831 15.9078 19.75 10.5248 19.75C5.14223 19.75 0.775426 15.3836 0.77482 10.0011C0.77072 8.56823 1.0825 7.15205 1.68797 5.85335C2.2936 4.55432 3.17818 3.40479 4.27873 2.48661C4.59679 2.22125 5.06973 2.26398 5.33509 2.58203C5.60044 2.90009 5.55772 3.37304 5.23966 3.63839C4.30843 4.41532 3.55994 5.388 3.04748 6.48718C2.53502 7.58636 2.27121 8.785 2.27482 9.99777L2.27482 10C2.27482 14.5545 5.97028 18.25 10.5248 18.25C15.0794 18.25 18.7748 14.5545 18.7748 10V9.99991C18.775 8.78378 18.5053 7.58277 17.9854 6.4834C17.4654 5.38404 16.708 4.4137 15.7679 3.64232C15.4476 3.37959 15.401 2.90701 15.6638 2.58678Z" fill="#219653"/>
<path fill-rule="evenodd" clip-rule="evenodd" d="M10.5248 0.25C10.939 0.25 11.2748 0.585786 11.2748 1V10C11.2748 10.4142 10.939 10.75 10.5248 10.75C10.1106 10.75 9.77482 10.4142 9.77482 10V1C9.77482 0.585786 10.1106 0.25 10.5248 0.25Z" fill="#219653"/>
</svg>
