<svg width="24" height="24" viewBox="0 0 24 24" fill="none" xmlns="http://www.w3.org/2000/svg">
<path d="M12 4.80005C7.65 4.80005 4.2 7.57505 0 12C3.6 15.8251 6.675 19.2001 12 19.2001C17.325 19.2001 21.3 14.925 24 12.075C21.225 8.77505 17.325 4.80005 12 4.80005ZM12 18.3751C7.275 18.3751 4.35 15.4501 1.125 12C5.025 7.95005 8.1 5.62505 12 5.62505C16.65 5.62505 20.25 8.92505 22.95 12.075C20.25 14.7751 16.725 18.3751 12 18.3751Z" fill="#656D7F"/>
<path d="M12.0002 7.19995C9.37519 7.19995 7.2002 9.37495 7.2002 11.9999C7.2002 14.6249 9.37519 16.7999 12.0002 16.7999C14.6252 16.7999 16.8002 14.6249 16.8002 11.9999C16.8002 9.37495 14.6252 7.19995 12.0002 7.19995ZM12.0002 15.9749C9.82519 15.9749 8.02519 14.1749 8.02519 11.9999C8.02519 9.82495 9.82519 8.02495 12.0002 8.02495C14.1752 8.02495 15.9752 9.82495 15.9752 11.9999C15.9752 14.1749 14.1752 15.9749 12.0002 15.9749Z" fill="#656D7F"/>
</svg>
