<svg width="21" height="16" viewBox="0 0 21 16" fill="none" xmlns="http://www.w3.org/2000/svg">
<path fill-rule="evenodd" clip-rule="evenodd" d="M6.44617 9.99752C7.57021 8.99842 9.0218 8.44654 10.5257 8.44654C12.0296 8.44654 13.4812 8.99842 14.6052 9.99752C14.9148 10.2727 14.9427 10.7468 14.6675 11.0564C14.3923 11.3659 13.9183 11.3938 13.6087 11.1187C12.7592 10.3636 11.6622 9.94654 10.5257 9.94654C9.38916 9.94654 8.29215 10.3636 7.44269 11.1187C7.1331 11.3938 6.65905 11.3659 6.38386 11.0564C6.10868 10.7468 6.13658 10.2727 6.44617 9.99752Z" fill="#27AE60"/>
<path fill-rule="evenodd" clip-rule="evenodd" d="M3.56953 7.14856C5.45607 5.3845 7.9424 4.40315 10.5252 4.40315C13.108 4.40315 15.5944 5.3845 17.4809 7.14856C17.7834 7.43146 17.7994 7.90607 17.5165 8.20862C17.2336 8.51117 16.759 8.52709 16.4564 8.24419C14.8477 6.73996 12.7276 5.90315 10.5252 5.90315C8.32282 5.90315 6.2027 6.73996 4.59402 8.24419C4.29147 8.52709 3.81687 8.51117 3.53396 8.20862C3.25105 7.90607 3.26698 7.43146 3.56953 7.14856Z" fill="#27AE60"/>
<path fill-rule="evenodd" clip-rule="evenodd" d="M1.03907 3.97592C3.64994 1.64681 7.02644 0.359619 10.5252 0.359619C14.024 0.359619 17.4005 1.64681 20.0114 3.97592C20.3205 4.25166 20.3475 4.72576 20.0718 5.03486C19.796 5.34396 19.3219 5.371 19.0128 5.09526C16.6768 3.01131 13.6557 1.85962 10.5252 1.85962C7.39473 1.85962 4.37365 3.01131 2.03761 5.09526C1.72851 5.371 1.25441 5.34396 0.978669 5.03486C0.70293 4.72576 0.729971 4.25166 1.03907 3.97592Z" fill="#27AE60"/>
<path d="M10.5252 15.4992C10.2285 15.4992 9.93853 15.4112 9.69186 15.2464C9.44518 15.0816 9.25292 14.8473 9.13939 14.5732C9.02586 14.2991 8.99616 13.9975 9.05404 13.7065C9.11191 13.4156 9.25477 13.1483 9.46455 12.9385C9.67433 12.7287 9.94161 12.5859 10.2326 12.528C10.5235 12.4701 10.8251 12.4998 11.0992 12.6134C11.3733 12.7269 11.6076 12.9192 11.7724 13.1658C11.9372 13.4125 12.0252 13.7025 12.0252 13.9992C12.0252 14.397 11.8672 14.7785 11.5859 15.0598C11.3046 15.3411 10.923 15.4992 10.5252 15.4992Z" fill="#27AE60"/>
</svg>
