<svg width="25" height="24" viewBox="0 0 25 24" fill="none" xmlns="http://www.w3.org/2000/svg">
<path fill-rule="evenodd" clip-rule="evenodd" d="M9.76087 4.56522H5.06522V9.26087H9.76087V4.56522ZM5.06522 3C4.6501 3 4.25198 3.16491 3.95844 3.45844C3.66491 3.75198 3.5 4.1501 3.5 4.56522V9.26087C3.5 9.67599 3.66491 10.0741 3.95844 10.3676C4.25198 10.6612 4.6501 10.8261 5.06522 10.8261H9.76087C10.176 10.8261 10.5741 10.6612 10.8676 10.3676C11.1612 10.0741 11.3261 9.67599 11.3261 9.26087V4.56522C11.3261 4.1501 11.1612 3.75198 10.8676 3.45844C10.5741 3.16491 10.176 3 9.76087 3H5.06522ZM9.76087 14.7391H5.06522V19.4348H9.76087V14.7391ZM5.06522 13.1739C4.6501 13.1739 4.25198 13.3388 3.95844 13.6324C3.66491 13.9259 3.5 14.324 3.5 14.7391V19.4348C3.5 19.8499 3.66491 20.248 3.95844 20.5416C4.25198 20.8351 4.6501 21 5.06522 21H9.76087C10.176 21 10.5741 20.8351 10.8676 20.5416C11.1612 20.248 11.3261 19.8499 11.3261 19.4348V14.7391C11.3261 14.324 11.1612 13.9259 10.8676 13.6324C10.5741 13.3388 10.176 13.1739 9.76087 13.1739H5.06522ZM19.9348 4.56522H15.2391V9.26087H19.9348V4.56522ZM15.2391 3C14.824 3 14.4259 3.16491 14.1324 3.45844C13.8388 3.75198 13.6739 4.1501 13.6739 4.56522V9.26087C13.6739 9.67599 13.8388 10.0741 14.1324 10.3676C14.4259 10.6612 14.824 10.8261 15.2391 10.8261H19.9348C20.3499 10.8261 20.748 10.6612 21.0416 10.3676C21.3351 10.0741 21.5 9.67599 21.5 9.26087V4.56522C21.5 4.1501 21.3351 3.75198 21.0416 3.45844C20.748 3.16491 20.3499 3 19.9348 3H15.2391ZM19.9348 14.7391H15.2391V19.4348H19.9348V14.7391ZM15.2391 13.1739C14.824 13.1739 14.4259 13.3388 14.1324 13.6324C13.8388 13.9259 13.6739 14.324 13.6739 14.7391V19.4348C13.6739 19.8499 13.8388 20.248 14.1324 20.5416C14.4259 20.8351 14.824 21 15.2391 21H19.9348C20.3499 21 20.748 20.8351 21.0416 20.5416C21.3351 20.248 21.5 19.8499 21.5 19.4348V14.7391C21.5 14.324 21.3351 13.9259 21.0416 13.6324C20.748 13.3388 20.3499 13.1739 19.9348 13.1739H15.2391Z" fill="black"/>
</svg>
